<mxfile host="app.diagrams.net" modified="2022-02-17T02:18:28.136Z" agent="5.0 (Macintosh; Intel Mac OS X 10_15_7) AppleWebKit/537.36 (KHTML, like Gecko) Chrome/98.0.4758.102 Safari/537.36" etag="n08VpiIj161vir2E_Vbr" version="15.8.7" type="github">
  <diagram id="eS8v2JzyAvh7r2EF3Rgj" name="第 1 页">
    <mxGraphModel dx="1082" dy="610" grid="1" gridSize="10" guides="1" tooltips="1" connect="1" arrows="1" fold="1" page="1" pageScale="1" pageWidth="827" pageHeight="1169" math="0" shadow="0">
      <root>
        <mxCell id="0" />
        <mxCell id="1" parent="0" />
        <mxCell id="NnMpdhqOtMTp9gV9yTCp-11" style="edgeStyle=orthogonalEdgeStyle;rounded=0;orthogonalLoop=1;jettySize=auto;html=1;exitX=0.5;exitY=0;exitDx=0;exitDy=0;entryX=0.5;entryY=1;entryDx=0;entryDy=0;" edge="1" parent="1" source="NnMpdhqOtMTp9gV9yTCp-9" target="NnMpdhqOtMTp9gV9yTCp-3">
          <mxGeometry relative="1" as="geometry" />
        </mxCell>
        <mxCell id="NnMpdhqOtMTp9gV9yTCp-28" value="服务" style="edgeLabel;html=1;align=center;verticalAlign=middle;resizable=0;points=[];" vertex="1" connectable="0" parent="NnMpdhqOtMTp9gV9yTCp-11">
          <mxGeometry x="-0.0625" y="1" relative="1" as="geometry">
            <mxPoint as="offset" />
          </mxGeometry>
        </mxCell>
        <mxCell id="NnMpdhqOtMTp9gV9yTCp-9" value="" style="rounded=0;whiteSpace=wrap;html=1;" vertex="1" parent="1">
          <mxGeometry x="40" y="160" width="240" height="200" as="geometry" />
        </mxCell>
        <mxCell id="NnMpdhqOtMTp9gV9yTCp-1" value="table0（base表）" style="rounded=0;whiteSpace=wrap;html=1;fillColor=#dae8fc;strokeColor=#6c8ebf;" vertex="1" parent="1">
          <mxGeometry x="60" y="235" width="70" height="30" as="geometry" />
        </mxCell>
        <mxCell id="NnMpdhqOtMTp9gV9yTCp-3" value="数据集" style="rounded=0;whiteSpace=wrap;html=1;fillColor=#fff2cc;strokeColor=#d6b656;" vertex="1" parent="1">
          <mxGeometry x="40" y="80" width="240" height="40" as="geometry" />
        </mxCell>
        <mxCell id="NnMpdhqOtMTp9gV9yTCp-4" value="" style="shape=curlyBracket;whiteSpace=wrap;html=1;rounded=1;" vertex="1" parent="1">
          <mxGeometry x="140" y="190" width="20" height="135" as="geometry" />
        </mxCell>
        <mxCell id="NnMpdhqOtMTp9gV9yTCp-5" value="table1" style="rounded=0;whiteSpace=wrap;html=1;" vertex="1" parent="1">
          <mxGeometry x="170" y="175" width="70" height="30" as="geometry" />
        </mxCell>
        <mxCell id="NnMpdhqOtMTp9gV9yTCp-6" value="table2" style="rounded=0;whiteSpace=wrap;html=1;" vertex="1" parent="1">
          <mxGeometry x="170" y="220" width="70" height="30" as="geometry" />
        </mxCell>
        <mxCell id="NnMpdhqOtMTp9gV9yTCp-7" value="table3" style="rounded=0;whiteSpace=wrap;html=1;" vertex="1" parent="1">
          <mxGeometry x="170" y="265" width="70" height="30" as="geometry" />
        </mxCell>
        <mxCell id="NnMpdhqOtMTp9gV9yTCp-8" value="......" style="rounded=0;whiteSpace=wrap;html=1;" vertex="1" parent="1">
          <mxGeometry x="170" y="305" width="70" height="30" as="geometry" />
        </mxCell>
        <mxCell id="NnMpdhqOtMTp9gV9yTCp-12" value="" style="shape=flexArrow;endArrow=classic;html=1;rounded=0;" edge="1" parent="1">
          <mxGeometry width="50" height="50" relative="1" as="geometry">
            <mxPoint x="290" y="240" as="sourcePoint" />
            <mxPoint x="390" y="240" as="targetPoint" />
          </mxGeometry>
        </mxCell>
        <mxCell id="NnMpdhqOtMTp9gV9yTCp-13" value="优化后" style="text;html=1;align=center;verticalAlign=middle;resizable=0;points=[];autosize=1;strokeColor=none;fillColor=none;" vertex="1" parent="1">
          <mxGeometry x="305" y="210" width="50" height="20" as="geometry" />
        </mxCell>
        <mxCell id="NnMpdhqOtMTp9gV9yTCp-15" value="" style="rounded=0;whiteSpace=wrap;html=1;" vertex="1" parent="1">
          <mxGeometry x="400" y="160" width="240" height="200" as="geometry" />
        </mxCell>
        <mxCell id="NnMpdhqOtMTp9gV9yTCp-24" value="" style="edgeStyle=orthogonalEdgeStyle;rounded=0;orthogonalLoop=1;jettySize=auto;html=1;" edge="1" parent="1" source="NnMpdhqOtMTp9gV9yTCp-16" target="NnMpdhqOtMTp9gV9yTCp-23">
          <mxGeometry relative="1" as="geometry" />
        </mxCell>
        <mxCell id="NnMpdhqOtMTp9gV9yTCp-26" style="edgeStyle=orthogonalEdgeStyle;rounded=0;orthogonalLoop=1;jettySize=auto;html=1;exitX=0.5;exitY=0;exitDx=0;exitDy=0;entryX=0.228;entryY=1.052;entryDx=0;entryDy=0;entryPerimeter=0;dashed=1;" edge="1" parent="1" source="NnMpdhqOtMTp9gV9yTCp-16" target="NnMpdhqOtMTp9gV9yTCp-17">
          <mxGeometry relative="1" as="geometry" />
        </mxCell>
        <mxCell id="NnMpdhqOtMTp9gV9yTCp-29" value="服务（可选）" style="edgeLabel;html=1;align=center;verticalAlign=middle;resizable=0;points=[];" vertex="1" connectable="0" parent="NnMpdhqOtMTp9gV9yTCp-26">
          <mxGeometry x="-0.0655" relative="1" as="geometry">
            <mxPoint y="-1" as="offset" />
          </mxGeometry>
        </mxCell>
        <mxCell id="NnMpdhqOtMTp9gV9yTCp-16" value="table0（base表）" style="rounded=0;whiteSpace=wrap;html=1;fillColor=#dae8fc;strokeColor=#6c8ebf;" vertex="1" parent="1">
          <mxGeometry x="420" y="235" width="70" height="30" as="geometry" />
        </mxCell>
        <mxCell id="NnMpdhqOtMTp9gV9yTCp-17" value="数据集" style="rounded=0;whiteSpace=wrap;html=1;fillColor=#fff2cc;strokeColor=#d6b656;" vertex="1" parent="1">
          <mxGeometry x="400" y="80" width="240" height="40" as="geometry" />
        </mxCell>
        <mxCell id="NnMpdhqOtMTp9gV9yTCp-27" value="服务" style="edgeStyle=orthogonalEdgeStyle;rounded=0;orthogonalLoop=1;jettySize=auto;html=1;entryX=0.707;entryY=0.969;entryDx=0;entryDy=0;entryPerimeter=0;" edge="1" parent="1" source="NnMpdhqOtMTp9gV9yTCp-23" target="NnMpdhqOtMTp9gV9yTCp-17">
          <mxGeometry relative="1" as="geometry">
            <mxPoint x="570" y="130" as="targetPoint" />
          </mxGeometry>
        </mxCell>
        <mxCell id="NnMpdhqOtMTp9gV9yTCp-23" value="table1&lt;br&gt;（非结构化）" style="whiteSpace=wrap;html=1;rounded=0;strokeColor=#6c8ebf;fillColor=#dae8fc;" vertex="1" parent="1">
          <mxGeometry x="530" y="230" width="80" height="40" as="geometry" />
        </mxCell>
      </root>
    </mxGraphModel>
  </diagram>
</mxfile>
